<svg viewBox="0 0 400 240" xmlns="http://www.w3.org/2000/svg">
  <rect width="400" height="240" fill="#eaf4ee"/>
  <circle cx="200" cy="120" r="92" fill="#d7ece0"/>
  <!-- flask -->
  <path d="M178 60 h44 v8 h-44 z" fill="#277C4B"/>
  <path d="M186 68 h28 v34 l30 54 a14 14 0 0 1 -12 21 h-64 a14 14 0 0 1 -12 -21 l30 -54 z"
        fill="#ffffff" stroke="#277C4B" stroke-width="5"/>
  <path d="M172 142 h56 l10 18 a8 8 0 0 1 -7 12 h-62 a8 8 0 0 1 -7 -12 z" fill="#277C4B"/>
  <circle cx="194" cy="120" r="4" fill="#0b5324"/>
  <circle cx="210" cy="132" r="3" fill="#0b5324"/>
  <circle cx="200" cy="108" r="3" fill="#0b5324"/>
  <!-- test tube -->
  <rect x="248" y="74" width="18" height="64" rx="9" fill="#ffffff" stroke="#277C4B" stroke-width="5"/>
  <rect x="248" y="104" width="18" height="34" rx="9" fill="#277C4B"/>
  <rect x="244" y="68" width="26" height="9" rx="3" fill="#0b5324"/>
</svg>
